PathFileType	4	(X/Y/Z)	Walk4.trc
DataRate	CameraRate	NumFrames	NumMarkers	Units	OrigDataRate	OrigDataStartFrame	OrigNumFrames
200.000000	200.000000	5	59	mm	200.000000	243	559
Frame#	Times		LFHD		C7		CLAV		STRN		RBack		RASI		RACR1		RUA1		RElbow		RFA1		RWRU		RCAR		LACR1		LUA1		LFA1		LWRR		LCAR		RTH1		RTH3		RTH2		RLFC		LTH1		LTH3		LTH2		LTH4		LLFC		LTB1		LTB3		LTB4		LMT1		LToe		T10		RTH4		LMMAL		LTB2		LMT5		RFHD		RPSI		RWRR		RToe		LLMAL		LElbow		LPSI		RBHD		RTB1		LBHD		LWRU		LElbowM		RTB2		RTB4		RTB3		RMT1		LASI		RMMAL		RLMAL		RMT5		RCAL		LCAL		RElbowM
			X1	Y1	Z1	X2	Y2	Z2	X3	Y3	Z3	X4	Y4	Z4	X5	Y5	Z5	X6	Y6	Z6	X7	Y7	Z7	X8	Y8	Z8	X9	Y9	Z9	X10	Y10	Z10	X11	Y11	Z11	X12	Y12	Z12	X13	Y13	Z13	X14	Y14	Z14	X15	Y15	Z15	X16	Y16	Z16	X17	Y17	Z17	X18	Y18	Z18	X19	Y19	Z19	X20	Y20	Z20	X21	Y21	Z21	X22	Y22	Z22	X23	Y23	Z23	X24	Y24	Z24	X25	Y25	Z25	X26	Y26	Z26	X27	Y27	Z27	X28	Y28	Z28	X29	Y29	Z29	X30	Y30	Z30	X31	Y31	Z31	X32	Y32	Z32	X33	Y33	Z33	X34	Y34	Z34	X35	Y35	Z35	X36	Y36	Z36	X37	Y37	Z37	X38	Y38	Z38	X39	Y39	Z39	X40	Y40	Z40	X41	Y41	Z41	X42	Y42	Z42	X43	Y43	Z43	X44	Y44	Z44	X45	Y45	Z45	X46	Y46	Z46	X47	Y47	Z47	X48	Y48	Z48	X49	Y49	Z49	X50	Y50	Z50	X51	Y51	Z51	X52	Y52	Z52	X53	Y53	Z53	X54	Y54	Z54	X55	Y55	Z55	X56	Y56	Z56	X57	Y57	Z57	X58	Y58	Z58	X59	Y59	Z59

243	1.215	-616.84	1565.8	-49.475	-780.17	1401.5	-5.1093	-654.31	1324.8	-15.979	-575.71	1100.7	-10.922	-816.53	1296.3	96.058	-628.08	929.87	142.56	-696.08	1337.5	160.12	-685.57	1127.7	225.55	-683.62	1019.9	252.29	-578.27	906.79	229.08	-562.29	795.08	232.25	-504.56	778.03	217.2	-728.52	1331.7	-181.39	-778.4	1126.5	-219.25	-783.37	884.43	-246.3	-778.27	763.61	-211.64	-796.2	723.19	-253.82	-743.79	727.89	174.57	-777.85	547.08	130.3	-696.05	636.05	120.66	-813.05	444.85	112.88	-684.48	718.62	-174.75	-623.25	544.93	-139.65	-591.29	653.69	-120.97	-653.22	627.51	-159.5	-591.53	446.47	-122.42	-521.66	369.26	-47.158	-468.87	188.62	-48.837	-493.25	277.84	-52.023	-316.69	88.91	-63.514	-283.75	96.987	-89.536	-807.66	1115.9	-1.2192	-761.71	637.38	150.63	-450.82	88.138	-12.74	-524.62	270.74	-116.79	-351.84	51.802	-121.63	-608.77	1570.2	23.207	-835.7	963.74	58.801	-528.28	824.04	173.91	-839.58	23.262	64.639	-467.68	64.883	-90.45	-813.19	1011.4	-224.41	-835.47	951.88	-55.199	-778.43	1532.7	64.482	-839.46	320.92	32.868	-787.03	1535.8	-62.616	-836.03	773.03	-253.09	-820.2	999.61	-154.86	-901.06	247.3	97.964	-890.88	243.45	26.701	-942.26	166.55	20.699	-881.9	34.714	25.121	-622.57	920.21	-133.36	-1004	97.682	-12.842	-1029	87.675	65.935	-933.7	20.938	106.29	-1081	66.985	15.741	-497.58	21.384	-30.315	-715.68	992.88	177.42
244	1.22	-610.97	1565.2	-50.161	-773.97	1400.7	-5.8705	-648.02	1324	-16.684	-569.38	1099.8	-11.467	-810.33	1295.4	95.276	-622.08	928.96	142.35	-689.9	1336.7	159.4	-679.31	1126.9	224.88	-677.64	1019.1	251.84	-572.39	905.88	228.75	-556.49	794.18	232.02	-498.74	777.14	217.07	-722.23	1330.7	-182.12	-772.55	1125.6	-219.81	-778.29	883.51	-246.59	-773.49	762.72	-211.78	-791.55	722.3	-253.91	-738.37	727.14	174.29	-773.21	546.42	130.17	-691.06	635.05	120.4	-809.07	444.42	112.7	-677.38	718.7	-174.93	-616.02	545.09	-139.69	-584.34	653.85	-120.68	-646.07	627.64	-159.52	-584.52	446.31	-122.51	-515.51	368.65	-46.965	-463.79	187.81	-48.467	-487.61	277.11	-51.727	-312.31	86.37	-62.942	-279.04	93.67	-88.772	-801.28	1115	-1.8087	-756.67	636.66	150.44	-446.52	87.169	-12.423	-518.68	270.25	-116.59	-347.77	49.487	-121.17	-602.91	1569.5	22.526	-829.48	963	58.26	-522.42	823.07	173.68	-839.59	23.252	64.605	-463.46	64.2	-90.166	-807.69	1010.5	-224.81	-829.12	951.39	-55.79	-772.51	1531.7	63.781	-836.51	320.56	32.961	-781.1	1534.8	-63.317	-831.22	772.25	-253.24	-814.71	998.87	-155.25	-898.95	247.74	98.154	-888.73	243.6	26.956	-940.85	167.2	21.056	-881.89	34.649	25.138	-616	919.36	-133.39	-1003.2	98.934	-12.403	-1028.3	89.176	66.38	-933.65	20.904	106.23	-1080.5	69.055	16.237	-494.23	21.514	-30.123	-709.56	991.95	176.93
245	1.225	-605.08	1564.6	-50.866	-767.73	1399.9	-6.662	-641.69	1323.2	-17.42	-562.99	1099	-12.036	-804.09	1294.6	94.462	-616.03	928.04	142.07	-683.67	1335.9	158.65	-673.05	1126.2	224.19	-671.69	1018.4	251.37	-566.6	904.99	228.43	-550.81	793.29	231.81	-493.06	776.24	216.97	-715.91	1329.8	-182.87	-766.66	1124.8	-220.39	-773.13	882.64	-246.9	-768.62	761.88	-211.94	-786.8	721.47	-254.01	-732.88	726.41	173.96	-768.45	545.79	130	-685.99	634.08	120.09	-804.95	444.02	112.5	-670.2	718.97	-175.08	-608.65	545.44	-139.77	-577.26	654.21	-120.4	-638.82	627.97	-159.54	-577.41	446.32	-122.65	-509.39	368.09	-46.803	-459.05	186.99	-48.106	-482.15	276.39	-51.45	-308.45	83.487	-62.356	-274.81	89.889	-87.992	-794.87	1114.3	-2.3826	-751.53	635.95	150.22	-442.74	86.169	-12.111	-512.9	269.83	-116.4	-344.27	46.939	-120.76	-597.02	1569	21.827	-823.23	962.32	57.77	-516.68	822.09	173.46	-839.61	23.241	64.556	-459.79	63.531	-89.895	-802.13	1009.8	-225.24	-822.77	951.02	-56.341	-766.56	1530.8	63.06	-833.45	320.24	33.055	-775.14	1533.9	-64.039	-826.33	771.51	-253.4	-809.18	998.17	-155.67	-896.73	248.26	98.364	-886.47	243.8	27.23	-939.36	167.93	21.455	-881.89	34.578	25.161	-609.41	918.6	-133.45	-1002.4	100.29	-11.902	-1027.5	90.801	66.877	-933.6	20.874	106.18	-1080	71.29	16.804	-491.51	21.739	-29.956	-703.46	991.09	176.42
246	1.23	-599.16	1564.2	-51.588	-761.46	1399.2	-7.4821	-635.33	1322.5	-18.183	-556.54	1098.3	-12.628	-797.82	1293.9	93.62	-609.92	927.12	141.72	-677.41	1335.1	157.88	-666.8	1125.6	223.48	-665.8	1017.8	250.86	-560.89	904.13	228.12	-545.27	792.42	231.61	-487.51	775.35	216.89	-709.57	1328.9	-183.65	-760.72	1124	-221	-767.9	881.83	-247.22	-763.64	761.11	-212.12	-781.94	720.71	-254.13	-727.3	725.71	173.6	-763.57	545.17	129.8	-680.82	633.16	119.74	-800.68	443.65	112.26	-662.96	719.42	-175.21	-601.17	545.99	-139.87	-570.09	654.76	-120.15	-631.48	628.49	-159.56	-570.22	446.47	-122.84	-503.31	367.61	-46.678	-454.6	186.17	-47.762	-476.86	275.71	-51.2	-305.04	80.341	-61.762	-271.01	85.743	-87.203	-788.43	1113.6	-2.9373	-746.29	635.27	149.95	-439.41	85.17	-11.812	-507.28	269.48	-116.25	-341.29	44.239	-120.41	-591.12	1568.6	21.111	-816.95	961.71	57.335	-511.04	821.12	173.27	-839.64	23.23	64.492	-456.6	62.9	-89.645	-796.52	1009.1	-225.68	-816.41	950.78	-56.846	-760.59	1530	62.318	-830.25	319.97	33.15	-769.16	1533.1	-64.783	-821.34	770.82	-253.57	-803.6	997.53	-156.12	-894.37	248.86	98.594	-884.09	244.08	27.526	-937.75	168.75	21.899	-881.89	34.5	25.189	-602.79	917.93	-133.55	-1001.5	101.76	-11.334	-1026.7	92.561	67.431	-933.54	20.853	106.13	-1079.3	73.708	17.445	-489.36	22.056	-29.823	-697.4	990.3	175.89
247	1.235	-593.22	1563.8	-52.327	-755.15	1398.6	-8.3286	-628.94	1321.9	-18.971	-550.04	1097.7	-13.24	-791.51	1293.2	92.754	-603.76	926.2	141.29	-671.1	1334.5	157.09	-660.57	1125	222.75	-659.95	1017.3	250.33	-555.28	903.3	227.82	-539.87	791.58	231.43	-482.1	774.46	216.83	-703.2	1328.1	-184.46	-754.72	1123.3	-221.63	-762.59	881.09	-247.56	-758.57	760.41	-212.31	-776.97	720.01	-254.27	-721.63	725.05	173.2	-758.54	544.58	129.56	-675.54	632.28	119.34	-796.22	443.31	111.99	-655.69	720.04	-175.32	-593.62	546.73	-139.99	-562.86	655.5	-119.94	-624.09	629.17	-159.58	-562.96	446.78	-123.08	-497.28	367.21	-46.597	-450.41	185.4	-47.447	-471.72	275.09	-50.985	-302.05	77.022	-61.164	-267.62	81.347	-86.415	-781.97	1113	-3.4689	-740.94	634.62	149.64	-436.48	84.202	-11.531	-501.81	269.23	-116.15	-338.76	41.478	-120.13	-585.19	1568.2	20.379	-810.66	961.17	56.96	-505.52	820.16	173.09	-839.68	23.217	64.413	-453.83	62.328	-89.422	-790.84	1008.4	-226.15	-810.05	950.66	-57.302	-754.6	1529.3	61.555	-826.89	319.74	33.246	-763.15	1532.4	-65.548	-816.25	770.2	-253.74	-797.98	996.96	-156.6	-891.85	249.56	98.845	-881.57	244.44	27.843	-936.02	169.68	22.391	-881.9	34.415	25.224	-596.16	917.36	-133.68	-1000.4	103.36	-10.696	-1025.7	94.47	68.043	-933.47	20.847	106.08	-1078.6	76.326	18.159	-487.67	22.454	-29.727	-691.38	989.6	175.33
